<svg viewBox="0 0 400 400" xmlns="http://www.w3.org/2000/svg"
    id="Being-Productive-3--Streamline-Brooklyn" height="400" width="400">
    <desc>Being Productive 3 Streamline Illustration: https://streamlinehq.com</desc>
    <path
        d="M326.962 152.412a5.018 5.018 0 0 0 -5.09 4.952c-0.498 45.464 -0.464 42.892 0.076 44.124a5.278 5.278 0 0 0 2.908 2.942c1.412 0.588 -0.24 0.424 30.5 0.42A5.42 5.42 0 0 0 360.8 199.6c1.376 -45.446 1.668 -42.562 1.07 -44.172a5.364 5.364 0 0 0 -2.908 -3.032c-1.51 -0.63 0.104 -0.518 -32 -0.048Zm0 1.504c31.848 0.466 30.098 0.216 31.072 0.624a3.016 3.016 0 0 1 1.646 1.726c0.33 0.82 0.548 -1.678 -1.302 43.248a3.022 3.022 0 0 1 -3.022 2.92c-30.948 0 -28.762 0.098 -29.58 -0.224a3.2 3.2 0 0 1 -1.646 -1.64c-0.436 -1.042 -0.088 1.252 -0.574 -43.2a3.464 3.464 0 0 1 3.4 -3.514Z"
        fill="#191919" stroke-width="1"></path>
    <path
        d="M193.296 174.046c0.07 -0.178 0.8 -2.88 1 -3.662 0.768 -3.106 1.012 -7.46 2.334 -7.352 0.96 0.076 0.842 2.266 0.842 3.288a43.106 43.106 0 0 1 -1.99 8.6c-0.076 0.2 -0.2 0.4 -0.268 0.6a1.114 1.114 0 0 1 -1.262 0.734l-1.684 -0.668a0.784 0.784 0 1 1 0.268 -1.544Z"
        fill="#191919" stroke-width="1"></path>
    <path
        d="M203.6 159.954c0.906 0.062 2.634 0.702 3.138 -0.13 0.292 -0.578 -0.372 -2.09 -3.062 -2.298 -2.234 -0.18 -3.4 0.97 -3.29 1.58 0.192 1.026 2.934 0.828 3.214 0.848Z"
        fill="#191919" stroke-width="1"></path>
    <path
        d="M184.304 189.02c3.632 -0.088 5.812 -3.72 7.03 -7.158 -3.332 -1.364 -6.522 -2.946 -9.786 -4.434 -2.462 4.772 -2.588 11.712 2.756 11.592Z"
        fill="#4faa84" stroke-width="1"></path>
    <path
        d="M191.842 182.656c-0.762 3.278 -3.014 6.782 -6.276 7.424 -7.128 1.426 -8.484 -6.8 -5.088 -13.21a1.212 1.212 0 0 1 1.568 -0.53c7.72 3.6 6.052 3.086 9.758 4.88a0.77 0.77 0 0 1 0.038 1.436Zm-9.72 -3.656c-1.452 3.672 -1.78 8.894 2.144 8.814a4.032 4.032 0 0 0 1.568 -0.302 11.28 11.28 0 0 0 4.44 -5.162 67.058 67.058 0 0 1 -8.152 -3.35Z"
        fill="#191919" stroke-width="1"></path>
    <path
        d="M134.252 274.35a97.172 97.172 0 0 0 -34.212 -22.104c-4.478 -1.766 -8.982 -4.226 -13.622 -4.978a1.178 1.178 0 0 1 -0.842 -1.706c11.924 -21.94 22.56 -36.706 46.456 -44.612 9.248 -3.06 22.788 -5.784 32.068 -2.82 0.682 0.216 1.7 0.53 1.95 1.146 2.018 4.268 3.784 9.51 7.73 11.942 5.736 3.534 9.478 -0.75 8.84 -6.952a1.182 1.182 0 0 1 1.454 -1.296c6.2 1.444 12.93 0.838 18.942 3.58 13.524 6.17 29.014 19.926 38.918 30.934a1.024 1.024 0 0 1 0.038 1.324c-4.8 6.048 -12.564 13.384 -18.866 20a0.784 0.784 0 0 1 -1.148 -1.066c7.666 -8.2 12.922 -13.438 17.87 -19.544 -9.374 -10.264 -25.644 -23.956 -37.8 -29.496 -5.034 -2.292 -11.276 -2.058 -16.952 -3.086 0 7.128 -5.428 12.032 -12.552 7.646 -4.492 -2.764 -6.412 -8.128 -8.456 -12.6 -8.42 -3.258 -22.508 -0.338 -31.266 2.566 -22.14 7.34 -33.564 21.586 -44.426 42.016a89.766 89.766 0 0 1 12.514 4.846A96.218 96.218 0 0 1 135.782 273.6a0.8 0.8 0 0 1 0.154 0.818l-2.488 6.458a0.726 0.726 0 0 1 -1.378 -0.46Z"
        fill="#4faa84" stroke-width="1"></path>
    <path
        d="M211.626 238.552c0.12 0.522 0.448 2.292 0.65 2.932 0.018 0.072 1.226 4.064 1.8 6.622 0.492 2.2 0.8 4.442 1.148 6.73 0.148 0.97 0.382 1.914 0.536 2.91a0.784 0.784 0 0 0 1.568 -0.048 26.712 26.712 0 0 0 -0.88 -10.132 30.166 30.166 0 0 0 -3.444 -9.518 0.754 0.754 0 0 0 -0.956 -0.42 0.764 0.764 0 0 0 -0.422 0.924Z"
        fill="#4faa84" stroke-width="1"></path>
    <path
        d="M135.514 275.072c1.28 -2.316 2.088 -3.762 3.1 -5.914 0.812 -1.73 9.288 -20.342 10.752 -24.296a0.786 0.786 0 0 0 -0.344 -1.052 0.814 0.814 0 0 0 -1.072 0.358 111.178 111.178 0 0 0 -7.46 14.9 98.332 98.332 0 0 0 -6.276 15.43 0.71 0.71 0 1 0 1.3 0.574Z"
        fill="#4faa84" stroke-width="1"></path>
    <path
        d="M88.178 249.948c-6.44 9.45 -11.696 18.216 -15.116 29.654 -1.652 5.534 -3.166 11.784 -0.536 17.226a0.8 0.8 0 0 0 1.456 -0.618c-1.678 -4.542 -0.044 -11.27 1.376 -15.908 3.818 -12.458 7.51 -16.616 14.046 -29.622a0.688 0.688 0 0 0 -0.232 -0.984 0.728 0.728 0 0 0 -0.994 0.252Z"
        fill="#191919" stroke-width="1"></path>
    <path
        d="M170.642 297.83c8.478 -9.45 20.052 -15.87 24.76 -4.532a0.8 0.8 0 0 1 -1.454 0.67c-2.158 -4.356 -5.318 -5.102 -8.572 -4.136 -4.894 1.452 -10.218 6.46 -13.548 10.302a1.2 1.2 0 0 1 -1.492 0.266c-10.37 -5.714 -21.546 -10.086 -32.182 -15.4a121.784 121.784 0 0 1 -13.316 -7.734 0.722 0.722 0 0 1 0.766 -1.222c9.654 5.66 33.536 15.556 45.038 21.786Z"
        fill="#191919" stroke-width="1"></path>
    <path
        d="M181.97 300.6c0.2 -0.094 1.114 -0.444 1.568 -0.688a7.364 7.364 0 0 1 5.32 -1.24 3.866 3.866 0 0 1 1.262 0.32 0.788 0.788 0 0 0 1.034 -1.188 3.906 3.906 0 0 0 -1 -1 4.98 4.98 0 0 0 -3.482 -0.624 8.71 8.71 0 0 0 -4.86 2.2 6.578 6.578 0 0 0 -0.842 1.18 0.746 0.746 0 0 0 0 1.016 0.694 0.694 0 0 0 1 0.024Z"
        fill="#191919" stroke-width="1"></path>
    <path
        d="M182.276 307.614a8.258 8.258 0 0 0 1.186 -0.328 6.78 6.78 0 0 1 3.788 -0.964 5.126 5.126 0 0 1 0.958 -0.044 0.786 0.786 0 0 0 0.764 -1.376 3.178 3.178 0 0 0 -1.186 -0.8 6.566 6.566 0 0 0 -6.122 1.856 4.2 4.2 0 0 0 -0.344 0.57 0.724 0.724 0 1 0 0.956 1.086Z"
        fill="#191919" stroke-width="1"></path>
    <path
        d="M41.226 150.232a145.642 145.642 0 0 1 11.442 -17.432c1.266 -1.528 2.64 -2.892 3.978 -4.35a1.554 1.554 0 1 1 2.526 1.812c-0.956 1.732 -1.8 3.486 -2.832 5.172 -2.676 4.356 -8.814 12.546 -12.322 19.492a2.32 2.32 0 0 1 -3.6 0.69 55.4 55.4 0 0 1 -5.548 -6.052 1.43 1.43 0 0 1 -0.23 -2 1.454 1.454 0 0 1 2.028 -0.218 48.38 48.38 0 0 1 4.558 2.886Z"
        fill="#4faa84" stroke-width="1"></path>
    <path
        d="M41.226 116.554a98.43 98.43 0 0 1 10.14 -13.84c1.2 -1.2 2.488 -2.236 3.75 -3.316a1.56 1.56 0 1 1 2.334 2.072c-0.956 1.422 -1.756 2.904 -2.756 4.322 -2.904 4.128 -7.168 9.226 -10.866 15.556a2.366 2.366 0 0 1 -3.6 0.58 30.754 30.754 0 0 1 -5.012 -5.894 1.432 1.432 0 0 1 -0.23 -2.012 1.45 1.45 0 0 1 2.028 -0.2 30.136 30.136 0 0 1 4.212 2.732Z"
        fill="#4faa84" stroke-width="1"></path>
    <path
        d="M62.73 108.902c31.34 -0.908 29.34 0.15 42.514 -0.84a0.786 0.786 0 0 0 -0.038 -1.57c-3.628 -0.146 -3.708 -0.264 -8.914 -0.34 -6.75 -0.096 -20.122 -0.268 -27.362 0.4 -1.462 0.136 -3.638 0.426 -6.352 0.926a0.72 0.72 0 1 0 0.152 1.424Z"
        fill="#4faa84" stroke-width="1"></path>
    <path
        d="M62.96 119.974a14.738 14.738 0 0 0 1.838 0.264c0.888 0.03 5.91 -0.304 7.69 -0.48a11.384 11.384 0 0 0 2.488 -0.526 0.784 0.784 0 1 0 -0.076 -1.566 17.356 17.356 0 0 0 -6.046 -0.072 15.562 15.562 0 0 0 -6 0.948 0.718 0.718 0 0 0 0.114 1.432Z"
        fill="#4faa84" stroke-width="1"></path>
    <path
        d="M63 140.03c1.446 -0.2 9.13 -0.764 9.336 -0.776 6.422 -0.42 12.326 -0.29 17.946 -0.838 5.494 -0.538 6.428 -0.786 8.572 -0.874a0.786 0.786 0 1 0 0.038 -1.57 74.412 74.412 0 0 0 -12.512 0.33c-10.084 0.444 -15.984 -0.05 -23.688 2.324a0.718 0.718 0 0 0 0.308 1.404Z"
        fill="#4faa84" stroke-width="1"></path>
    <path
        d="M62.502 155.49a15.488 15.488 0 0 0 1.836 0.086c0.2 -0.012 6.882 -0.69 7.156 -0.728a10.74 10.74 0 0 0 2.258 -0.6 0.786 0.786 0 1 0 -0.2 -1.562 13.6 13.6 0 0 0 -2.066 -0.182 52.474 52.474 0 0 0 -7.538 0.818 10.07 10.07 0 0 0 -1.76 0.764 0.718 0.718 0 0 0 0.314 1.404Z"
        fill="#4faa84" stroke-width="1"></path>
    <path
        d="M48.688 210.942a18.516 18.516 0 0 1 -9.72 -1.242c-7.668 -2.852 -11.542 -14.846 -5.894 -23.234a21.102 21.102 0 0 1 11.098 -7.666 14.708 14.708 0 0 1 15.268 5.8 16.516 16.516 0 0 1 2 9.4 29.894 29.894 0 0 1 -0.536 5.522 0.788 0.788 0 0 0 1.532 0.362 30.256 30.256 0 0 0 0.764 -11.722c-1.178 -8.52 -11.6 -13.906 -19.668 -11.702a23.482 23.482 0 0 0 -12.476 8.636c-6.534 9.656 -1.946 23.724 7.232 26.6a19.388 19.388 0 0 0 10.716 0.636 0.72 0.72 0 0 0 -0.316 -1.39Z"
        fill="#191919" stroke-width="1"></path>
    <path
        d="m47.216 196.954 0.384 -6.4a1.2 1.2 0 0 1 2.18 -0.6c0.52 0.8 4.658 6.142 7.232 10.036a0.8 0.8 0 0 1 -1.262 0.948c-1.812 -2.228 -3.972 -4.272 -5.932 -6.91l-0.268 3.948a1.158 1.158 0 0 1 -0.88 1.094c-1.6 0.416 -3.214 0.942 -4.822 1.382 2.716 1.516 4.7 3.152 7.692 4.888a0.722 0.722 0 0 1 0.382 0.952 0.738 0.738 0 0 1 -0.956 0.358 30.4 30.4 0 0 1 -2.832 -1.166c-1.658 -0.8 -7.074 -3.8 -8.15 -4.6a1.214 1.214 0 0 1 0.536 -2.144c2.314 -0.402 4.626 -1.204 6.696 -1.786Z"
        fill="#4faa84" stroke-width="1"></path>
    <path
        d="M52.438 210a49.956 49.956 0 0 1 3.978 -5.328 16.238 16.238 0 0 1 3.254 -3.428c2.236 -1.454 4.34 0.258 4.63 2.69a2.914 2.914 0 0 1 2.486 4.318 27.676 27.676 0 0 1 -7.078 8.312c-2.032 1.81 -4.136 0.978 -4.706 -0.962a2.552 2.552 0 0 1 -2.87 -1 4.122 4.122 0 0 1 0.306 -4.602Zm1.032 1.12c-0.2 0.682 -0.21 2.096 0.422 2.418 0.35 0.2 1.076 -0.268 1.416 -0.546a1.142 1.142 0 0 1 1.836 1.056 1.568 1.568 0 0 0 0.23 1.14c0.434 0.336 4.502 -4.016 5.09 -4.71 0.548 -0.65 2.73 -3.46 2.104 -3.986 -0.682 -0.53 -1.452 0.546 -2.334 -0.272a1.2 1.2 0 0 1 -0.344 -1.252 2.046 2.046 0 0 0 -0.23 -1.56c-0.2 -0.216 -0.304 -0.466 -0.69 -0.156a17.372 17.372 0 0 0 -2.832 2.918c-1.496 1.598 -2.78 2.78 -4.668 4.948Z"
        fill="#191919" stroke-width="1"></path>
    <path
        d="M63 218.026c2.05 -1.094 6 -5.706 4.36 -6.584a0.8 0.8 0 0 0 -1.032 0.318c-0.162 0.212 -2.964 3.528 -4.286 5.2 -0.526 0.652 0.006 1.574 0.958 1.066Z"
        fill="#191919" stroke-width="1"></path>
    <path
        d="M49.874 125.982c0 -2.11 0.226 -7.314 0.344 -12.648a0.8 0.8 0 0 1 1.6 0l0.346 13.776a1.16 1.16 0 0 1 -1.11 1.16c-25.846 0.872 -24.092 0.986 -24.6 0.476s-0.362 1.042 -0.362 -23.832a1.2 1.2 0 0 1 1.2 -1.18c6.172 0 9.64 0.304 17.6 0.462a0.72 0.72 0 1 1 0 1.438c-8.726 0.172 -10.892 0.432 -16.4 0.458v20.534Z"
        fill="#191919" stroke-width="1"></path>
    <path
        d="M50.638 159.65c0 -1.132 0.346 -14.172 0.346 -14.172a0.8 0.8 0 0 1 1.6 0l0.382 15.306a1.2 1.2 0 0 1 -1.148 1.168l-23.724 0.81a1.2 1.2 0 0 1 -1.244 -1.212V138.6a1.2 1.2 0 0 1 1.168 -1.176c5.33 -0.242 11.54 -0.2 16.836 -0.308a0.734 0.734 0 0 1 0.766 0.686 0.75 0.75 0 0 1 -0.69 0.75c-7.056 0.492 -11.938 0.978 -15.67 1.168v20.578Z"
        fill="#191919" stroke-width="1"></path>
    <path
        d="M295.086 255.24c2.874 -0.3 6.078 0.6 7.08 3.382 0.566 1.57 0.446 3.958 -1.34 7.55 -0.564 1.136 -22.96 48.016 -22.96 48.22a11.432 11.432 0 0 1 -3.252 3.634 8.682 8.682 0 0 1 -4.67 1.614c-2.258 0.102 -121.688 6.474 -121.688 6.474a0.708 0.708 0 0 1 -0.726 -0.588 3.858 3.858 0 0 1 1.722 -4.07 10.574 10.574 0 0 1 5.854 -1.518c6.534 -0.214 24.878 -1.87 31.418 -2.476 1.072 -2.626 20.062 -49.356 20.28 -49.958a16.542 16.542 0 0 1 5.818 -7.426 14.652 14.652 0 0 1 9.106 -2.528c9.484 0.356 63.986 -1.906 73.358 -2.31Zm-19.364 58.076c0.306 -0.67 21.06 -44.4 22.96 -48.22 1.348 -2.706 1.614 -4.48 1.188 -5.662 -0.64 -1.77 -3.328 -1.924 -4.554 -1.78 -0.226 0.026 -70.426 2.412 -73.664 2.288a12.288 12.288 0 0 0 -7.652 2.102 14.274 14.274 0 0 0 -4.974 6.274c0 0.2 0.874 -1.358 -20.816 50.518a1.016 1.016 0 0 1 -0.882 0.646c-34.8 2.818 -34.678 1.46 -37.232 3.2a2.626 2.626 0 0 0 -1.186 1.81c4.822 -0.314 118.664 -7.148 120.96 -7.254a7.302 7.302 0 0 0 5.852 -3.922Z"
        fill="#191919" stroke-width="1"></path>
    <path
        d="M19.8 223.104a34.182 34.182 0 0 0 4.746 -5.064 27.552 27.552 0 0 0 4.706 -5.972 0.822 0.822 0 0 0 -0.076 -1.108 0.786 0.786 0 0 0 -1.11 0.08 19.68 19.68 0 0 0 -2.028 1.716 90.4 90.4 0 0 0 -6.314 7.358c-0.35 0.51 -0.942 1.8 -1.11 2.136a0.73 0.73 0 0 0 1.186 0.854Z"
        fill="#4faa84" stroke-width="1"></path>
    <path
        d="M10.766 201.186a7.564 7.564 0 0 0 1.682 0.328 52.226 52.226 0 0 0 6.774 -0.696 10.962 10.962 0 0 0 1.8 -0.6 0.786 0.786 0 1 0 -0.2 -1.56 8.182 8.182 0 0 0 -3.098 -0.046c-7 0.718 -5.35 0.6 -7.042 1.128a0.72 0.72 0 1 0 0.078 1.436Z"
        fill="#4faa84" stroke-width="1"></path>
    <path
        d="M17.2 173.388a9.8 9.8 0 0 0 1 1.8 65.162 65.162 0 0 0 5.74 5.826 20.062 20.062 0 0 0 1.838 1.262 0.788 0.788 0 0 0 1.11 -1.116A21.638 21.638 0 0 0 22.6 176.4c-3.618 -3.59 -1.516 -1.856 -4.248 -3.926a0.732 0.732 0 0 0 -1.152 0.914Z"
        fill="#4faa84" stroke-width="1"></path>
    <path
        d="M41.11 166.908a2.506 2.506 0 0 0 -0.268 0.93 18.042 18.042 0 0 0 0.8 3.524 3.498 3.498 0 0 0 0.612 1.032 0.8 0.8 0 0 0 1.57 -0.316 7.478 7.478 0 0 0 0.152 -0.916 11.4 11.4 0 0 0 -0.42 -1.934c-0.35 -2 -0.686 -2.134 -1.034 -2.558a0.744 0.744 0 0 0 -0.842 -0.59 0.706 0.706 0 0 0 -0.57 0.828Z"
        fill="#4faa84" stroke-width="1"></path>
    <path
        d="M64.3 178.572a23.956 23.956 0 0 0 4.2 -4.74 24.386 24.386 0 0 0 4.134 -5.6 0.816 0.816 0 0 0 -0.076 -1.104 0.8 0.8 0 0 0 -1.11 0.104 14.254 14.254 0 0 0 -1.838 1.6 78.712 78.712 0 0 0 -5.586 6.918 11.892 11.892 0 0 0 -0.918 2.014 0.72 0.72 0 0 0 1.194 0.808Z"
        fill="#4faa84" stroke-width="1"></path>
    <path
        d="M342.346 276c9.456 0 30.518 -0.926 30.726 -0.942 1.418 -0.112 2.832 -0.28 4.2 -0.43a0.784 0.784 0 0 0 -0.038 -1.568 189.9 189.9 0 0 0 -21.046 0.178 78.95 78.95 0 0 0 -14 1.33 0.72 0.72 0 1 0 0.158 1.432Z"
        fill="#191919" stroke-width="1"></path>
    <path
        d="M303.084 265.878a35.724 35.724 0 0 1 7.692 -0.942c4.936 -0.556 9.948 -1.126 14.924 -1.316 -3.444 0.856 -11 3.096 -10.6 8a6.086 6.086 0 0 0 2.6 3.688 21.438 21.438 0 0 0 9.336 4.232c-8.456 0.538 -17.144 1.144 -25.6 1.228 -1.568 0.016 -3.1 0.326 -4.668 0.4Z"
        fill="#4faa84" stroke-width="1"></path>
    <path
        d="M289.538 301.954c4.514 -0.448 9.184 0.2 13.698 0 10.944 -0.512 21.928 -1.498 32.834 -1.282a10.812 10.812 0 0 0 -3.904 2.85c-2.984 3.858 2.448 5.97 5.51 6.6 -16.302 0.726 -32.564 0.468 -48.828 0.522Z"
        fill="#4faa84" stroke-width="1"></path>
    <path
        d="M381.3 267.38c-1.336 0.112 -15.322 0.642 -25.14 0.664 -16.04 0.04 -18.248 -0.12 -27.438 0.95a0.72 0.72 0 0 0 0.116 1.436c0.2 0 25.278 0.236 36.812 -0.094a102.012 102.012 0 0 0 15.8 -1.4 0.784 0.784 0 0 0 -0.15 -1.556Z"
        fill="#191919" stroke-width="1"></path>
    <path
        d="M389.068 303.4c-7.562 1.082 -17.5 1.616 -32.412 3.118 -4.018 0.42 -8.266 1.2 -12.436 1.51 -3.228 0.232 -11.84 0.416 -11.638 -2.8a7.788 7.788 0 0 1 3.946 -3.432 12.912 12.912 0 0 1 1.976 -0.532c8.466 -0.04 17.056 -1.484 25.346 -2.098 9.66 -0.74 10.784 0 24.262 -1.568a0.8 0.8 0 0 0 0.726 -0.86 0.836 0.836 0 0 0 -0.88 -0.702c-4.956 0.434 -15.236 0.094 -24.26 0.738 -8.368 0.61 -26.426 3.35 -33.292 1.436 -2.92 -0.822 -2.8 -3.538 -1.072 -5.646a9.692 9.692 0 0 1 5.312 -3.02c16.528 -0.568 37.324 -3.716 52.51 -4.4a0.786 0.786 0 0 0 -0.038 -1.57c-25.516 -0.476 -61.3 7.446 -67.542 1.466 -0.518 -0.496 -0.22 -0.908 0.306 -1.4a15.238 15.238 0 0 1 5.39 -2.8c6.65 -0.422 22.754 2.664 54.574 -1.832a0.784 0.784 0 1 0 -0.19 -1.558 288.88 288.88 0 0 1 -51.356 0.844 19.474 19.474 0 0 1 -10.14 -4.238 3.4 3.4 0 0 1 -0.038 -5.4c3.274 -3.824 11.712 -3.984 16.646 -4.314 24.554 -1.66 27.27 -1.118 39.032 -1.726 3.816 -0.2 1.616 -0.234 6.162 -0.446a0.786 0.786 0 0 0 -0.04 -1.57c-9.812 0.084 -24.852 -0.106 -46.418 1.214 -3.356 0.2 -12 1.158 -12.932 -2.138 -0.212 -1.128 2.356 -2.142 3.444 -2.51 11.6 -3.924 40.2 -3.234 57.936 -4.09a0.72 0.72 0 1 0 -0.04 -1.438c-10.456 -0.038 -38.516 -1.29 -55.262 2.322a91.086 91.086 0 0 0 -16.946 1.628c-1.33 0.22 -2.6 0.6 -3.904 0.93a0.786 0.786 0 1 0 0.23 1.556 125.18 125.18 0 0 0 13.658 -1.422 3.676 3.676 0 0 0 0.268 6.13c-3.292 0.298 -5.942 0.688 -9.296 1.132a34.842 34.842 0 0 0 -7.8 1.266 0.716 0.716 0 1 0 0.46 1.358 38.148 38.148 0 0 1 7.576 -0.618c1.722 -0.152 6.39 -0.546 6.964 -0.6a6.968 6.968 0 0 0 -3.98 6.378c0.276 2.958 4.348 5.76 6.964 7.016 -2.218 0.142 -20.4 1.158 -20.892 1.22 -1.072 0.136 -2.144 0.34 -3.214 0.428a0.786 0.786 0 0 0 0.076 1.568c1.108 -0.038 2.218 -0.154 3.29 -0.22 2.552 -0.152 4.9 0.362 19.774 -0.542 -3.572 2.048 -3.69 4.656 -0.354 6.558 -3.866 0.038 -15.964 0.58 -19.152 1 -3.6 0.492 -4.762 0.838 -6.62 0.952a0.72 0.72 0 0 0 -0.038 1.438c4.136 0.45 3.96 -0.054 19.63 -0.788 2.948 -0.138 10.026 -0.336 10.64 -0.366 1.182 -0.062 5.364 -0.336 5.69 -0.336 -3.846 2.368 -5.292 7.372 -1.94 9.852 -7.258 0.2 -13.62 0.71 -24.53 1.364 -4.966 0.358 -7.916 -0.27 -13.7 0.372a0.718 0.718 0 0 0 0.116 1.432c4.22 -0.296 9.222 0.454 13.66 0.358 6.928 -0.236 19.512 -1.14 28.816 -1.182a5.152 5.152 0 0 0 -1.99 4.118 4.4 4.4 0 0 0 1.99 3.152c-3.024 0.098 -37.54 0.6 -43.28 0.732a0.786 0.786 0 0 0 0.038 1.57c17.93 0.336 30.944 0.676 48.906 -0.098a1.2 1.2 0 0 0 1.098 -0.846c6.066 0.4 12.262 -0.95 18.072 -1.546 12.8 -1.35 19.942 -1.298 32.45 -3.984a0.788 0.788 0 0 0 -0.312 -1.52Z"
        fill="#191919" stroke-width="1"></path>
    <path
        d="M80.258 312.498a18 18 0 0 0 3.098 3.048 44.05 44.05 0 0 0 16.264 6.678 36.494 36.494 0 0 0 4.746 0.562 0.8 0.8 0 0 0 0.918 -0.64 0.8 0.8 0 0 0 -0.652 -0.906c-1.358 -0.372 -3.022 -0.914 -4.476 -1.284a47.736 47.736 0 0 1 -15.498 -6.288c-0.6 -0.38 -2.448 -1.484 -3.4 -2.214a0.72 0.72 0 1 0 -1 1.044Z"
        fill="#191919" stroke-width="1"></path>
    <path
        d="M137.35 328.22c2.84 -0.506 4.82 -1.364 4.9 -4.282 0.132 -5.626 -6.4 -12.582 -13.892 -12.724a24.866 24.866 0 0 0 -9.338 1.672c-10.658 4.118 -13.894 13.42 -8.264 15.182 3.596 1.114 21.912 0.98 26.594 0.152Zm-25.026 -1.288v-0.044l18.254 -0.442c1.8 -0.064 7.082 -0.346 8.648 -1.256 1.2 -0.698 0.368 -3.422 -0.306 -4.664a13 13 0 0 0 -10.638 -6.9c-12.762 -0.272 -21.04 10.14 -17.6 12.646a4.63 4.63 0 0 0 1.642 0.66Z"
        fill="#191919" stroke-width="1"></path>
    <path
        d="M77.54 301.958c0 -0.084 0.038 -0.176 0.038 -0.27a0.746 0.746 0 0 0 -0.114 -0.4 0.722 0.722 0 0 0 -1.34 -0.4c-25.484 -0.584 -29.376 -0.694 -32.986 0a1.214 1.214 0 0 0 -1 1.15c-0.03 0.66 -0.046 1.342 -0.082 2.038a9.712 9.712 0 0 0 -5.85 0.864c-6.612 3.586 -5.028 14.4 4.822 14.636a22.768 22.768 0 0 0 2.812 -0.152c5.4 9.38 21.88 10.07 29.064 2.264 4.642 -5.178 5.266 -12.786 4.636 -19.73Zm-41.06 13.696a5.302 5.302 0 0 1 0.918 -8.686 14.482 14.482 0 0 1 4.58 -1.348 29.178 29.178 0 0 0 1.032 12.032 12.28 12.28 0 0 1 -6.53 -1.998Zm34.708 4.434c-5.904 6.358 -19.832 6.132 -24.834 -1.226 -2.91 -4.306 -2.036 -10.6 -1.838 -15.786 4.324 -0.614 4.162 0.134 31.532 -0.584 0.13 5.954 -0.78 13.262 -4.86 17.596Z"
        fill="#191919" stroke-width="1"></path>
    <path
        d="M35.14 327.692c0.038 0.034 0.116 0.07 0.154 0.104l0.8 0.484c2.918 1.348 8.568 1.172 11.6 1.186 2.912 0.018 26.148 -0.836 30.2 -1.858a7.874 7.874 0 0 0 3.33 -1.56 0.494 0.494 0 0 0 0.154 -0.28c0.038 -0.34 -0.27 -0.63 -0.766 -0.974a10.964 10.964 0 0 0 -5.282 -1.378 0.8 0.8 0 0 1 -0.764 -0.826 0.824 0.824 0 0 1 0.84 -0.742 12.268 12.268 0 0 1 6.276 1.246c2.784 1.666 2.736 4.644 -1.874 6.354 -3.238 1.26 -8.868 1.312 -13.432 1.582 -6.956 0.412 -23.276 1.8 -29.8 -0.102 -4.294 -1.322 -4.712 -3.938 -2.526 -5.12a19.862 19.862 0 0 1 4.248 -1.2 20 20 0 0 1 5.626 -0.274 0.72 0.72 0 0 1 -0.038 1.438 23.898 23.898 0 0 0 -8.746 1.92Zm-0.114 0.046c-0.114 0.058 -0.152 0.116 -0.114 0.164 0.076 0.038 0.114 -0.058 0.114 -0.164Zm0.038 -0.104c0 -0.084 -0.038 -0.15 -0.076 -0.122 -0.076 0.024 0 0.068 0.076 0.122Z"
        fill="#191919" stroke-width="1"></path>
    <path
        d="M56.188 245.912a25 25 0 0 0 -6.162 8.14c-3.34 7.564 0.038 12.918 3.942 19.8 2.184 3.85 4.69 8.232 4.094 12.544a11.528 11.528 0 0 1 -4.362 7.302 0.8 0.8 0 0 0 1 1.232c13.308 -10 -0.072 -21.73 -3.022 -31.096a13.708 13.708 0 0 1 1.6 -11.228c3 -5.4 4.878 -5.876 3.902 -6.732a0.692 0.692 0 0 0 -0.992 0.038Z"
        fill="#191919" stroke-width="1"></path>
    <path
        d="M62.77 271.838c0.066 0.17 0.708 1.988 0.842 2.32a26.358 26.358 0 0 1 1.912 5.24 27.862 27.862 0 0 1 0.384 7.77 0.772 0.772 0 0 0 0.496 0.978 0.8 0.8 0 0 0 1 -0.522 10.886 10.886 0 0 0 0.88 -2.566 18.848 18.848 0 0 0 -1.8 -10.308A11.906 11.906 0 0 0 64 271.074a0.722 0.722 0 0 0 -1.23 0.764Z"
        fill="#191919" stroke-width="1"></path>
    <path
        d="M252.724 288.042a1.2 1.2 0 0 0 -2.104 -0.36c-1.028 1.422 -2.154 1.306 -2.984 0.26a2.188 2.188 0 0 1 0.496 -3.512 0.82 0.82 0 0 0 0.46 -0.816 0.718 0.718 0 0 0 -0.498 -1.064 9.2 9.2 0 0 0 -9.298 3.74c-6 7.628 3.1 15.652 10.332 11.132a8.178 8.178 0 0 0 3.596 -9.38Z"
        fill="#4faa84" stroke-width="1"></path>
    <path
        d="M259.038 272.868c-5.44 -1.312 -9.664 1.852 -10.254 6.2a0.772 0.772 0 0 0 -0.154 1.302c4.81 4.658 11.246 -0.3 11.328 -6.316a1.232 1.232 0 0 0 -0.92 -1.186Z"
        fill="#4faa84" stroke-width="1"></path>
    <path
        d="M328.034 148.538a3.908 3.908 0 0 1 0.304 -1.88 2.892 2.892 0 0 1 1.722 -1.584c1.038 -0.41 -0.054 0 34.67 0.08a2.672 2.672 0 0 1 2.68 2.69c0.138 46.35 0.722 43.478 -0.536 44.842a3.45 3.45 0 0 1 -2.832 0.988 0.786 0.786 0 1 0 0 1.57l0.688 0.018a4.728 4.728 0 0 0 4.86 -4.702c0.316 -16.532 0.106 11.082 0.268 -42.716a5.12 5.12 0 0 0 -5.128 -5.106c-5.318 0.012 -31 0.2 -33.522 0.26a4.712 4.712 0 0 0 -4.63 4.848v0.692a0.728 0.728 0 0 0 1.456 0Z"
        fill="#191919" stroke-width="1"></path>
    <path
        d="M331.86 166.094c0.564 0.078 2.052 0.36 2.946 0.448 2 0.19 3.942 0.296 5.932 0.508a47.188 47.188 0 0 0 9.72 0.646 0.784 0.784 0 1 0 0.152 -1.562c-1.132 -0.26 -2.16 -0.56 -3.29 -0.724a104 104 0 0 0 -12.436 -1.152 17.814 17.814 0 0 0 -3.024 0.4 0.718 0.718 0 1 0 0 1.436Z"
        fill="#4faa84" stroke-width="1"></path>
    <path
        d="M332.09 175.02a7.032 7.032 0 0 0 1.95 0.426c6.866 0.456 6.032 0.284 7.424 0.04a0.786 0.786 0 1 0 0.116 -1.566c-0.382 -0.134 -0.728 -0.282 -1.148 -0.4a28.464 28.464 0 0 0 -4.516 -0.4 7.32 7.32 0 0 0 -3.864 0.468 0.718 0.718 0 0 0 0.038 1.432Z"
        fill="#4faa84" stroke-width="1"></path>
    <path
        d="M330.75 184.272c0.506 0 2.122 0.022 2.986 -0.016 0.818 -0.034 3.256 -0.274 6.926 -0.304 2.334 -0.02 4.668 0.15 6.926 0.19 1.032 0.018 2.028 -0.056 3.022 -0.054a0.782 0.782 0 0 0 0.154 -1.558 31.906 31.906 0 0 0 -10.14 -1 25.91 25.91 0 0 0 -10.142 1.33 0.72 0.72 0 0 0 0.268 1.412Z"
        fill="#4faa84" stroke-width="1"></path>
    <path
        d="M329.8 191.978a6.142 6.142 0 0 0 1.722 0.214c0.918 -0.026 1.836 -0.094 2.754 -0.112s1.838 0.068 2.756 -0.012c0.496 -0.044 0.918 -0.188 1.416 -0.276a0.8 0.8 0 0 0 0.842 -0.726 0.8 0.8 0 0 0 -0.728 -0.84 9.412 9.412 0 0 0 -1.338 -0.43 24.218 24.218 0 0 0 -5.436 0 4.44 4.44 0 0 0 -2.256 0.764 0.722 0.722 0 0 0 0.268 1.418Z"
        fill="#4faa84" stroke-width="1"></path>
    <path
        d="M304.764 204.2h-37.034a3.49 3.49 0 0 0 -3.438 3.488c0 1.91 0.29 16.958 0.348 19.68a3.064 3.064 0 0 0 3.09 3c0 0.2 36.828 0.474 37.034 0.476a3.514 3.514 0 0 0 3.496 -3.486v-19.68a3.496 3.496 0 0 0 -3.496 -3.478Zm-28.364 15.6a7.2 7.2 0 0 1 -0.982 1.514c-0.834 0.964 -3.86 3.984 -4.6 4.562a7.984 7.984 0 0 1 -1.388 0.81 0.748 0.748 0 0 1 -1.04 0 0.76 0.76 0 0 1 0 -1.016 8.16 8.16 0 0 1 0.81 -1.4c0.508 -0.616 3.548 -3.708 4.564 -4.6a9.136 9.136 0 0 1 1.53 -0.982 0.78 0.78 0 0 1 1.098 0 0.772 0.772 0 0 1 0.008 1.112Zm9.216 0.484a162.6 162.6 0 0 1 -17.072 -10.822 0.722 0.722 0 0 1 0.75 -1.234 177.532 177.532 0 0 1 16.958 9.6c4.974 -3.052 11.906 -7.222 16.928 -9.652a0.784 0.784 0 0 1 0.8 1.346c-4.664 3.4 -12.094 7.88 -17.102 10.766a1.232 1.232 0 0 1 -1.266 0.002Zm18.518 6.448a0.776 0.776 0 0 1 -1.098 0 17.684 17.684 0 0 1 -4.478 -3.86 9.424 9.424 0 0 1 -2.426 -3.12 0.76 0.76 0 0 1 0 -1.016 0.748 0.748 0 0 1 1.04 0 29.758 29.758 0 0 1 6.326 5.8 10.124 10.124 0 0 1 0.636 1.092 0.774 0.774 0 0 1 -0.004 1.11Z"
        fill="#4faa84" stroke-width="1"></path>
    <path
        d="M149.848 155.052a63.71 63.71 0 0 1 14.032 -62.288 61.894 61.894 0 0 1 87.484 -3.452c32.896 30.35 23.118 83.452 -15.174 102.2a1.542 1.542 0 1 0 1.328 2.782 65.766 65.766 0 0 0 17.092 -108.48 66.6 66.6 0 0 0 -94.17 3.754 64.7 64.7 0 0 0 -13.286 66.4 1.424 1.424 0 0 0 1.8 0.886 1.4 1.4 0 0 0 0.894 -1.802Z"
        fill="#4faa84" stroke-width="1"></path>
    <path
        d="M207.496 89.6a319.326 319.326 0 0 0 -0.076 36.736 0.766 0.766 0 0 0 1.53 0 316.704 316.704 0 0 0 -0.076 -36.736 0.69 0.69 0 1 0 -1.378 0Z"
        fill="#191919" stroke-width="1"></path>
    <path
        d="M225.962 132.2c2.732 -1.6 9.066 -5.114 7.692 -7.4 -1.458 -2.414 -7.74 1.856 -10.142 3.332 -1.326 0.818 -6.304 3.722 -5.05 5.8s6.714 -1.27 7.5 -1.732Z"
        fill="#191919" stroke-width="1"></path>
    <path
        d="M187.504464339 166.75254003a3.444 2.296 54.825 1 0 3.7534839776 -2.6453396814 3.444 2.296 54.825 1 0 -3.7534839776 2.6453396814Z"
        fill="#191919" stroke-width="1"></path>
    <path
        d="M198.7518195164 170.1046400872a3.444 2.296 -15.329 1 0 6.6429506988 -1.8209201008 3.444 2.296 -15.329 1 0 -6.6429506988 1.8209201008Z"
        fill="#191919" stroke-width="1"></path>
    <path
        d="M239.756 244.922a10.65 10.65 0 0 0 0.88 2c0.618 1.014 3.714 5.512 5.088 7.2a18.988 18.988 0 0 0 1.722 1.742 0.764 0.764 0 0 0 1.072 0.182 0.8 0.8 0 0 0 0.2 -1.08c-0.344 -0.67 -0.568 -1.286 -0.88 -1.836 -0.756 -1.32 -5.06 -7.16 -5.434 -7.614a19.092 19.092 0 0 0 -1.492 -1.4 0.704 0.704 0 1 0 -1.156 0.806Z"
        fill="#191919" stroke-width="1"></path>
    <path
        d="M134.33 274.138a4.014 4.014 0 0 0 -0.764 0.928 36.816 36.816 0 0 0 -1.6 4.374 4.144 4.144 0 0 0 -0.076 1.32 0.776 0.776 0 0 0 1.454 0.54 8.16 8.16 0 0 0 0.688 -0.878 14.012 14.012 0 0 0 0.918 -2.308c1.07 -2.876 0.728 -2.456 0.728 -3.51a0.71 0.71 0 0 0 -1.348 -0.466Z"
        fill="#191919" stroke-width="1"></path>
    <path
        d="M231.334 168.52c-1.492 -5.654 -4.976 -19.234 -11.174 -28.364 -4.478 -6.6 -10.332 -10.86 -17.678 -8.892 -12.324 -4.114 -24.722 1.2 -34.136 10.478 -19.284 19 -21.984 48.892 -5.128 54.906a11.518 11.518 0 0 0 5.624 0.782c-0.114 0.476 -0.226 0.95 -0.342 1.424a0.778 0.778 0 0 0 1.492 0.448 184.63 184.63 0 0 0 7.348 -27.012 1.2 1.2 0 0 0 -0.88 -1.43 13.334 13.334 0 0 1 -3.75 -1.486c-3.108 -1.96 -3.2 -5.022 -1.6 -6.39 5.904 -1.286 7.728 3.446 21.8 -6.55 0.492 0.69 1.812 1.968 2.564 1.478 0.4 -0.258 0.704 -1.324 -0.306 -2.552 -0.098 -0.126 -0.2 -0.248 -0.304 -0.362a50.51 50.51 0 0 0 10.52 -10.4 56.624 56.624 0 0 1 2.624 16.584c-1.97 13.214 -10.864 35.372 -24.358 34.928a1.076 1.076 0 0 0 -1.11 0.854c-0.384 2.36 -0.75 4.68 -1.34 7a0.782 0.782 0 1 0 1.492 0.47c0.168 -0.5 -0.022 -0.13 0.652 -0.054 8.844 0.966 27.052 4.524 36.046 1.468 13.79 -4.704 15.662 -23.2 11.944 -37.328Zm-58.24 -22a60.472 60.472 0 0 0 -8.6 10.816 33.104 33.104 0 0 0 -3.634 8.874 34.83 34.83 0 0 0 -0.956 4.022 0.71 0.71 0 0 1 -1.418 -0.06 18.674 18.674 0 0 1 0.2 -4.446 30.2 30.2 0 0 1 3.75 -9.588 29.896 29.896 0 0 1 9.72 -10.824 0.756 0.756 0 0 1 1.072 0.114 0.768 0.768 0 0 1 -0.134 1.094Zm9.49 -6.892c-1 0.774 -3.686 3.112 -4.514 2.21 -0.562 -0.6 0.6 -2.056 1.378 -2.748 1.264 -1.126 5.614 -4.478 6.39 -2.982 0.658 1.064 -2.254 2.788 -3.254 3.522Z"
        fill="#191919" stroke-width="1">
    </path>
</svg>